<?xml version="1.0" standalone="no"?>
<!DOCTYPE svg PUBLIC "-//W3C//DTD SVG 20010904//EN"
 "http://www.w3.org/TR/2001/REC-SVG-20010904/DTD/svg10.dtd">
<svg version="1.0" xmlns="http://www.w3.org/2000/svg"
 width="700.000000pt" height="700.000000pt" viewBox="0 0 700.000000 700.000000"
 preserveAspectRatio="xMidYMid meet">
<metadata>
Created by potrace 1.14, written by Peter Selinger 2001-2017
</metadata>
<g transform="translate(0.000000,700.000000) scale(0.100000,-0.100000)"
fill="#000000" stroke="none">
<path d="M435 6981 c-195 -57 -368 -231 -419 -422 -22 -81 -22 -2307 0 -2388
48 -179 214 -354 395 -417 52 -18 105 -19 1229 -19 l1175 0 60 24 c178 72 312
211 370 384 l25 76 0 1138 c0 1238 2 1190 -56 1304 -64 127 -156 219 -282 283
-112 57 -62 55 -1297 55 -1056 0 -1144 -2 -1200 -18z"/>
<path d="M4173 6985 c-182 -49 -346 -202 -419 -390 -18 -48 -19 -92 -22 -1195
-2 -832 0 -1161 8 -1205 40 -206 241 -410 450 -454 41 -9 349 -11 1205 -9
l1150 3 60 24 c171 68 307 209 370 381 20 54 20 83 22 1200 1 684 -2 1165 -7
1195 -5 28 -29 88 -52 134 -74 148 -226 274 -379 315 -79 21 -2307 22 -2386 1z"/>
<path d="M441 3254 c-146 -39 -302 -165 -373 -300 -72 -137 -68 -63 -68 -1320
0 -1058 1 -1135 18 -1196 50 -177 197 -336 381 -410 l56 -23 1180 0 1180 0 69
29 c167 70 297 202 362 371 18 48 19 91 21 1215 2 1138 1 1166 -18 1228 -56
176 -206 331 -386 399 -45 17 -118 18 -1208 20 -988 2 -1168 0 -1214 -13z"/>
<path d="M4170 3254 c-158 -43 -304 -164 -383 -319 -60 -118 -57 -41 -54
-1314 2 -1095 3 -1169 20 -1214 69 -183 240 -343 418 -391 45 -12 234 -15
1190 -15 1103 -1 1137 0 1207 19 197 55 370 234 417 432 22 93 21 2295 -1
2377 -53 200 -246 386 -444 431 -29 6 -458 9 -1180 9 -966 0 -1143 -3 -1190
-15z"/>
</g>
</svg>
